<svg xmlns="http://www.w3.org/2000/svg" viewBox="0 0 560 560.04"><path d="M219.42,275.6l-4.86-4.88a5.85,5.85,0,0,0-10,4.13v69.72a5.85,5.85,0,0,0,5.87,5.84h69.73a5.83,5.83,0,0,0,4.12-10,5.85,5.85,0,0,1,0-8.25l74.18-74.38a5.84,5.84,0,0,0,0-8.26l-6.76-6.73a5.84,5.84,0,0,1,4.13-10h69.7a5.86,5.86,0,0,1,5.86,5.84v69.72a5.86,5.86,0,0,1-10,4.13l-4.71-4.69a5.7,5.7,0,0,0-8.24,0l-125,125a5.89,5.89,0,0,1-8.27,0l-153-153a5.83,5.83,0,0,1,0-8.28L334,59.77a5.89,5.89,0,0,0,0-8.27L284.14,1.7a5.87,5.87,0,0,0-8.27,0L1.7,275.9a5.87,5.87,0,0,0,0,8.27L275.87,558.34a5.87,5.87,0,0,0,8.27,0L558.3,284.17a5.85,5.85,0,0,0,0-8.25L397,114.62a5.86,5.86,0,0,0-8.26,0l-161,161a5.83,5.83,0,0,1-8.28,0Z" fill="#de5959"/></svg>