<svg width="245" height="39" viewBox="0 0 245 39" fill="none" xmlns="http://www.w3.org/2000/svg">
<path d="M175.577 23.4812C175.577 24.9336 175.214 26.1736 174.487 27.2014C173.772 28.2181 172.767 28.9945 171.471 29.5308C170.175 30.067 168.65 30.3352 166.896 30.3352C165.969 30.3352 165.092 30.2905 164.265 30.2011C163.439 30.1117 162.679 29.9832 161.986 29.8157C161.294 29.6481 160.685 29.4414 160.16 29.1956V26.4641C160.997 26.8104 162.02 27.1344 163.226 27.4361C164.433 27.7265 165.695 27.8718 167.014 27.8718C168.242 27.8718 169.281 27.7098 170.13 27.3858C170.98 27.0506 171.622 26.5758 172.058 25.9614C172.504 25.3357 172.728 24.5872 172.728 23.7158C172.728 22.8779 172.544 22.1797 172.175 21.6211C171.806 21.0513 171.192 20.5374 170.332 20.0794C169.482 19.6102 168.321 19.113 166.846 18.5879C165.807 18.2193 164.891 17.8171 164.098 17.3814C163.304 16.9345 162.64 16.4318 162.103 15.8732C161.567 15.3146 161.159 14.6666 160.88 13.9293C160.612 13.1919 160.478 12.3484 160.478 11.3988C160.478 10.0917 160.808 8.97453 161.467 8.04727C162.137 7.10883 163.059 6.39383 164.232 5.90227C165.416 5.39953 166.773 5.14816 168.304 5.14816C169.611 5.14816 170.818 5.27105 171.924 5.51684C173.041 5.76262 174.063 6.09219 174.99 6.50555L174.102 8.95219C173.219 8.58352 172.281 8.27629 171.287 8.03051C170.304 7.78473 169.287 7.66184 168.237 7.66184C167.187 7.66184 166.299 7.81824 165.572 8.13105C164.857 8.4327 164.31 8.86281 163.93 9.42141C163.55 9.98 163.36 10.6447 163.36 11.4156C163.36 12.2758 163.539 12.9908 163.897 13.5606C164.265 14.1304 164.846 14.6387 165.639 15.0855C166.444 15.5213 167.505 15.9793 168.823 16.4597C170.265 16.9848 171.488 17.5434 172.493 18.1355C173.499 18.7164 174.264 19.4314 174.789 20.2805C175.314 21.1184 175.577 22.1853 175.577 23.4812ZM195.116 29.9665L191.849 19.275C191.703 18.817 191.564 18.3701 191.43 17.9344C191.307 17.4875 191.189 17.063 191.078 16.6608C190.977 16.2474 190.882 15.8676 190.793 15.5213C190.715 15.1638 190.648 14.8565 190.592 14.5996H190.474C190.43 14.8565 190.368 15.1638 190.29 15.5213C190.212 15.8676 190.117 16.2474 190.005 16.6608C189.905 17.0741 189.793 17.5098 189.67 17.9679C189.547 18.4148 189.408 18.8672 189.251 19.3253L185.833 29.9665H182.699L177.638 11.5999H180.52L183.168 21.7384C183.347 22.4087 183.514 23.0734 183.671 23.7326C183.838 24.3805 183.978 24.995 184.09 25.5759C184.213 26.1457 184.302 26.6429 184.358 27.0674H184.492C184.559 26.7881 184.632 26.4529 184.71 26.0619C184.799 25.6709 184.894 25.2575 184.995 24.8218C185.106 24.375 185.224 23.9337 185.347 23.498C185.469 23.0511 185.592 22.6321 185.715 22.2411L189.1 11.5999H192.1L195.368 22.2244C195.535 22.7606 195.697 23.3192 195.854 23.9002C196.021 24.4811 196.172 25.0453 196.306 25.5927C196.44 26.1289 196.535 26.6093 196.591 27.0339H196.725C196.77 26.654 196.854 26.1848 196.976 25.6262C197.099 25.0676 197.239 24.4532 197.395 23.7829C197.563 23.1125 197.736 22.4311 197.915 21.7384L200.596 11.5999H203.428L198.351 29.9665H195.116ZM213.651 11.3318C215.84 11.3318 217.466 11.8234 218.527 12.8065C219.588 13.7896 220.119 15.3593 220.119 17.5154V30H218.091L217.555 27.2852H217.421C216.907 27.9555 216.371 28.5197 215.812 28.9778C215.254 29.4246 214.606 29.7654 213.868 30C213.142 30.2234 212.248 30.3352 211.187 30.3352C210.07 30.3352 209.076 30.1396 208.204 29.7486C207.344 29.3576 206.662 28.7655 206.16 27.9723C205.668 27.1791 205.422 26.1736 205.422 24.9559C205.422 23.1237 206.149 21.7161 207.601 20.7329C209.053 19.7498 211.265 19.2136 214.237 19.1242L217.404 18.9901V17.8673C217.404 16.2809 217.064 15.1693 216.382 14.5325C215.701 13.8957 214.74 13.5773 213.5 13.5773C212.539 13.5773 211.623 13.717 210.751 13.9963C209.88 14.2756 209.053 14.6052 208.271 14.985L207.417 12.8735C208.243 12.449 209.193 12.0859 210.265 11.7843C211.338 11.4826 212.466 11.3318 213.651 11.3318ZM217.371 20.9508L214.572 21.0681C212.282 21.1575 210.668 21.5317 209.729 22.1909C208.791 22.85 208.322 23.7829 208.322 24.9894C208.322 26.0396 208.64 26.816 209.277 27.3188C209.914 27.8215 210.757 28.0729 211.807 28.0729C213.438 28.0729 214.773 27.6204 215.812 26.7155C216.851 25.8105 217.371 24.4532 217.371 22.6433V20.9508ZM234.48 11.2983C236.771 11.2983 238.597 12.0859 239.96 13.6611C241.323 15.2364 242.005 17.6048 242.005 20.7664C242.005 22.8556 241.692 24.6096 241.066 26.0284C240.441 27.4472 239.558 28.5197 238.419 29.2459C237.29 29.9721 235.955 30.3352 234.413 30.3352C233.441 30.3352 232.587 30.2067 231.849 29.9497C231.112 29.6928 230.481 29.3464 229.956 28.9107C229.431 28.475 228.995 28.0002 228.649 27.4863H228.448C228.481 27.922 228.52 28.4471 228.565 29.0616C228.621 29.676 228.649 30.2123 228.649 30.6703V38.2113H225.85V11.6334H228.146L228.515 14.3482H228.649C229.006 13.7896 229.442 13.2813 229.956 12.8232C230.47 12.354 231.095 11.9854 231.833 11.7172C232.581 11.4379 233.464 11.2983 234.48 11.2983ZM233.994 13.6444C232.721 13.6444 231.693 13.8902 230.911 14.3817C230.14 14.8733 229.576 15.6106 229.219 16.5938C228.861 17.5657 228.671 18.789 228.649 20.2637V20.8C228.649 22.3529 228.816 23.6655 229.151 24.738C229.498 25.8105 230.062 26.6261 230.844 27.1847C231.637 27.7433 232.699 28.0226 234.028 28.0226C235.168 28.0226 236.117 27.7154 236.877 27.1009C237.637 26.4864 238.201 25.6318 238.569 24.537C238.949 23.4309 239.139 22.1629 239.139 20.7329C239.139 18.5656 238.715 16.8451 237.866 15.5715C237.028 14.2868 235.737 13.6444 233.994 13.6444Z" fill="#333333"/>
<path d="M144.54 5.28V31.68" stroke="#333333" stroke-width="1.32" stroke-linecap="square"/>
<mask id="mask0_164_1505" style="mask-type:alpha" maskUnits="userSpaceOnUse" x="0" y="2" width="24" height="17">
<path fill-rule="evenodd" clip-rule="evenodd" d="M0 2.67975H23.1595V18.0618H0V2.67975Z" fill="white"/>
</mask>
<g mask="url(#mask0_164_1505)">
<path fill-rule="evenodd" clip-rule="evenodd" d="M0.69572 10.114L13.1971 2.86697C13.6277 2.61734 14.1582 2.61734 14.5888 2.86697L22.4633 7.43183C23.2547 7.89061 23.3987 8.97775 22.7541 9.62824L20.0847 12.3221C19.6396 12.7713 18.9491 12.8634 18.4026 12.5466L14.6034 10.3442C14.1638 10.0894 13.6221 10.0894 13.1824 10.3442L0 18.0618V11.3239C0 10.8248 0.2652 10.3636 0.69572 10.114Z" fill="#FF8D00"/>
</g>
<mask id="mask1_164_1505" style="mask-type:alpha" maskUnits="userSpaceOnUse" x="0" y="15" width="24" height="20">
<path fill-rule="evenodd" clip-rule="evenodd" d="M1.52588e-05 15.7791H23.1883V34.2838H1.52588e-05V15.7791Z" fill="white"/>
</mask>
<g mask="url(#mask1_164_1505)">
<path fill-rule="evenodd" clip-rule="evenodd" d="M22.4921 29.515L14.5886 34.0966C14.1581 34.3462 13.6277 34.3462 13.1972 34.0966L0.695695 26.8495C0.265176 26.5999 1.52588e-05 26.1387 1.52588e-05 25.6396V19.5281L6.44193 15.7791V21.9052C6.44193 22.4043 6.70713 22.8655 7.13765 23.1151L13.1972 26.6278C13.6277 26.8774 14.1581 26.8774 14.5886 26.6278L18.4228 24.4052C18.9682 24.089 19.6571 24.1801 20.1024 24.6272L22.7804 27.3161C23.4276 27.966 23.2848 29.0554 22.4921 29.515Z" fill="#191919"/>
</g>
<path fill-rule="evenodd" clip-rule="evenodd" d="M73.0073 6.05306V25.0362C73.0073 26.3367 72.4647 26.4852 71.2479 26.4852H61.6652C61.2513 26.4852 60.9195 26.3621 60.6506 26.1089C60.5056 25.9725 60.2624 25.9978 60.2624 24.8083V6.05143H55.4146V25.321C55.4146 26.9396 55.9697 28.2998 57.0632 29.3621C58.1115 30.3914 59.6053 30.9133 61.5029 30.9133H71.7344C73.4774 30.9133 74.9413 30.3719 76.0859 29.3042C77.2601 28.207 77.8554 27.0026 77.8554 24.8734V6.0502L73.0073 6.05306Z" fill="#191919"/>
<path fill-rule="evenodd" clip-rule="evenodd" d="M102.353 17.8894C101.4 16.8618 100.131 16.3407 98.5808 16.3407H89.7903C89.2468 16.3407 88.8891 16.2277 88.4968 15.8519C88.1165 15.4969 88.0678 15.1109 88.0678 14.6408V12.0914C88.0678 11.6025 88.1464 11.2019 88.4674 10.8709C88.6489 10.6886 88.9309 10.4714 89.9687 10.4714H103.608V6.04333H88.222C86.4129 6.04333 84.9522 6.80854 83.8815 8.31607C83.4363 8.93711 83.2199 9.99089 83.2199 11.538V16.1533C83.2199 17.5962 83.588 18.6974 84.3118 19.4242C85.1886 20.3165 86.3623 20.7688 87.8005 20.7688H97.0405C97.6293 20.7688 98.0581 20.8786 98.3218 21.1005C98.7199 21.422 98.9134 21.7689 98.9134 22.1609V24.6686C98.9134 25.8895 98.6773 25.8697 98.5396 26.0036C98.1947 26.3322 97.7415 26.492 97.154 26.492H83.1992V30.9201H98.0943C99.8242 30.9201 101.244 30.3573 102.316 29.2466C103.275 28.2483 103.761 26.8532 103.761 25.0999V22.1935C103.761 20.3462 103.288 18.8981 102.353 17.8894Z" fill="#191919"/>
<mask id="mask2_164_1505" style="mask-type:alpha" maskUnits="userSpaceOnUse" x="109" y="6" width="22" height="25">
<path fill-rule="evenodd" clip-rule="evenodd" d="M109.55 6.05133H130.678V30.9121H109.55V6.05133Z" fill="white"/>
</mask>
<g mask="url(#mask2_164_1505)">
<path fill-rule="evenodd" clip-rule="evenodd" d="M109.55 6.05133V10.4794H117.641V30.9121H122.489V10.4794H130.678V6.05133H109.55Z" fill="#191919"/>
</g>
<path fill-rule="evenodd" clip-rule="evenodd" d="M50.4139 16.3595C50.5348 14.913 50.4139 11.5043 50.4139 11.5043C50.4139 9.28476 49.428 7.64364 47.4865 6.62814C46.7267 6.22301 45.576 6.02602 43.9687 6.02602L34.8436 6.04263C33.3973 6.04263 29.1117 6.02582 29.1117 6.02582L31.3024 10.4557H36.2183C36.2623 10.455 36.3061 10.4541 36.3515 10.4541H43.2877C44.3484 10.4541 45.5659 10.6457 45.5659 12.1393V15.7571C45.5659 16.9226 44.9833 17.4423 43.6768 17.4423H37.2726V17.4442H29.1117V30.9354H33.9597V21.8704H41.3311L44.6887 30.9377H50.4626C50.4626 30.9377 47.0557 21.7736 46.9525 21.5534C46.8155 21.261 48.3854 21.0277 49.3499 19.9763C50.3144 18.9249 50.293 17.8061 50.4139 16.3595Z" fill="#191919"/>
</svg>
