<svg width="20" height="19" viewBox="0 0 20 19" fill="none" xmlns="http://www.w3.org/2000/svg">
<path d="M13.75 5.92969C13.5807 5.76042 13.3789 5.67578 13.1445 5.67578C12.9102 5.67578 12.7083 5.76042 12.5391 5.92969L10 8.46875L7.55859 6.02734C7.38932 5.85807 7.1875 5.77344 6.95312 5.77344C6.71875 5.77344 6.52344 5.85807 6.36719 6.02734C6.19792 6.19661 6.11328 6.39844 6.11328 6.63281C6.11328 6.85417 6.19792 7.04948 6.36719 7.21875L8.80859 9.66016L6.26953 12.1992C6.10026 12.3685 6.01562 12.5768 6.01562 12.8242C6.01562 13.0586 6.10026 13.2604 6.26953 13.4297C6.4388 13.599 6.64062 13.6836 6.875 13.6836C7.10938 13.6836 7.3112 13.599 7.48047 13.4297L10.0195 10.8906L12.4805 13.332C12.6497 13.5013 12.8451 13.5859 13.0664 13.5859C13.3008 13.5859 13.5026 13.5013 13.6719 13.332C13.8281 13.1758 13.9062 12.9805 13.9062 12.7461C13.9062 12.5117 13.8281 12.3099 13.6719 12.1406L11.2109 9.69922L13.75 7.16016C13.9193 6.99089 14.0039 6.78906 14.0039 6.55469C14.0039 6.30729 13.9193 6.09896 13.75 5.92969ZM10 18.8398C8.73698 18.8398 7.54557 18.599 6.42578 18.1172C5.31901 17.6354 4.34896 16.9779 3.51562 16.1445C2.68229 15.3112 2.03125 14.3411 1.5625 13.2344C1.08073 12.1276 0.839844 10.9362 0.839844 9.66016C0.839844 8.39714 1.08073 7.21224 1.5625 6.10547C2.03125 4.98568 2.68229 4.01562 3.51562 3.19531C4.34896 2.36198 5.31901 1.70443 6.42578 1.22266C7.54557 0.740885 8.73698 0.5 10 0.5C11.263 0.5 12.4544 0.740885 13.5742 1.22266C14.681 1.70443 15.651 2.36198 16.4844 3.19531C17.3177 4.01562 17.9688 4.98568 18.4375 6.10547C18.9193 7.21224 19.1602 8.39714 19.1602 9.66016C19.1602 10.9362 18.9193 12.1276 18.4375 13.2344C17.9688 14.3411 17.3177 15.3112 16.4844 16.1445C15.651 16.9779 14.681 17.6354 13.5742 18.1172C12.4544 18.599 11.263 18.8398 10 18.8398Z" fill="#F37565"/>
</svg>
