<svg width="20" height="19" viewBox="0 0 20 19" fill="none" xmlns="http://www.w3.org/2000/svg">
<path d="M10 0.5C10.651 0.513021 11.2695 0.584635 11.8555 0.714844C12.4544 0.832031 13.0208 1.0013 13.5547 1.22266C14.1016 1.44401 14.6159 1.71745 15.0977 2.04297C15.5794 2.38151 16.0417 2.76562 16.4844 3.19531C16.9141 3.625 17.2917 4.08073 17.6172 4.5625C17.9427 5.04427 18.2161 5.55859 18.4375 6.10547C18.6589 6.63932 18.8346 7.20573 18.9648 7.80469C19.082 8.40365 19.1471 9.02214 19.1602 9.66016C19.1471 10.3112 19.082 10.9362 18.9648 11.5352C18.8346 12.1211 18.6589 12.6875 18.4375 13.2344C18.2161 13.7682 17.9427 14.276 17.6172 14.7578C17.2917 15.2526 16.9141 15.7148 16.4844 16.1445C16.0417 16.5742 15.5794 16.9518 15.0977 17.2773C14.6159 17.6029 14.1016 17.8763 13.5547 18.0977C13.0208 18.332 12.4544 18.5078 11.8555 18.625C11.2695 18.7422 10.651 18.8138 10 18.8398C9.34896 18.8138 8.73047 18.7422 8.14453 18.625C7.54557 18.5078 6.97266 18.332 6.42578 18.0977C5.89193 17.8763 5.38411 17.6029 4.90234 17.2773C4.42057 16.9518 3.95833 16.5742 3.51562 16.1445C3.08594 15.7148 2.70833 15.2526 2.38281 14.7578C2.05729 14.276 1.78385 13.7682 1.5625 13.2344C1.34115 12.6875 1.16536 12.1211 1.03516 11.5352C0.917969 10.9362 0.852865 10.3112 0.839844 9.66016C0.852865 9.02214 0.917969 8.40365 1.03516 7.80469C1.16536 7.20573 1.34115 6.63932 1.5625 6.10547C1.78385 5.55859 2.05729 5.04427 2.38281 4.5625C2.70833 4.08073 3.08594 3.625 3.51562 3.19531C3.95833 2.76562 4.42057 2.38151 4.90234 2.04297C5.38411 1.71745 5.89193 1.44401 6.42578 1.22266C6.97266 1.0013 7.54557 0.832031 8.14453 0.714844C8.73047 0.584635 9.34896 0.513021 10 0.5ZM10 4.42578C9.81771 4.42578 9.65495 4.45833 9.51172 4.52344C9.36849 4.58854 9.23828 4.6862 9.12109 4.81641C9.00391 4.94661 8.91927 5.08984 8.86719 5.24609C8.8151 5.40234 8.79557 5.5651 8.80859 5.73438L9.27734 10.9688C9.29036 11.0729 9.31641 11.1641 9.35547 11.2422C9.39453 11.3073 9.44661 11.3724 9.51172 11.4375C9.57682 11.4896 9.64844 11.5352 9.72656 11.5742C9.81771 11.6003 9.90885 11.6133 10 11.6133C10.0911 11.6133 10.1758 11.6003 10.2539 11.5742C10.3451 11.5352 10.4232 11.4896 10.4883 11.4375C10.5534 11.3854 10.6055 11.3203 10.6445 11.2422C10.6836 11.1641 10.7096 11.0729 10.7227 10.9688L11.1914 5.73438C11.2044 5.5651 11.1849 5.40234 11.1328 5.24609C11.0807 5.08984 10.9961 4.94661 10.8789 4.81641C10.7617 4.6862 10.6315 4.58854 10.4883 4.52344C10.3451 4.45833 10.1823 4.42578 10 4.42578ZM10 14.9141C10.1562 14.901 10.293 14.8685 10.4102 14.8164C10.5404 14.7643 10.651 14.6927 10.7422 14.6016C10.8464 14.4974 10.918 14.3867 10.957 14.2695C11.0091 14.1523 11.0352 14.0156 11.0352 13.8594C11.0352 13.7161 11.0091 13.5794 10.957 13.4492C10.918 13.319 10.8464 13.2083 10.7422 13.1172C10.651 13.013 10.5404 12.9414 10.4102 12.9023C10.293 12.8503 10.1562 12.8242 10 12.8242C9.84375 12.8242 9.70052 12.8503 9.57031 12.9023C9.45312 12.9414 9.34896 13.013 9.25781 13.1172C9.15365 13.2083 9.07552 13.319 9.02344 13.4492C8.98438 13.5794 8.96484 13.7161 8.96484 13.8594C8.96484 14.0156 8.98438 14.1523 9.02344 14.2695C9.07552 14.3867 9.15365 14.4974 9.25781 14.6016C9.34896 14.6927 9.45312 14.7643 9.57031 14.8164C9.70052 14.8685 9.84375 14.901 10 14.9141Z" fill="#4186E4"/>
</svg>
