<svg id="Layer_1" xmlns="http://www.w3.org/2000/svg" viewBox="0 0 139.8 139.8" width="2500" height="2500"><style>.st0{fill:url(#SVGID_1_)}.st1{fill:url(#SVGID_2_)}.st2{fill:url(#SVGID_3_)}</style><linearGradient id="SVGID_1_" gradientUnits="userSpaceOnUse" x1="20.318" y1="20.318" x2="119.829" y2="119.829"><stop offset="0" stop-color="#c38ae9"/><stop offset="1" stop-color="#7363ff"/></linearGradient><path class="st0" d="M69.9 0C31.4 0 0 31.4 0 69.9s31.4 69.9 69.9 69.9c38.5 0 69.9-31.4 69.9-69.9S108.4 0 69.9 0zm0 129.8c-33 0-59.9-26.9-59.9-59.9S36.9 10 69.9 10s59.9 26.9 59.9 59.9-26.9 59.9-59.9 59.9z"/><linearGradient id="SVGID_2_" gradientUnits="userSpaceOnUse" x1="28.1" y1="12.536" x2="127.612" y2="112.047"><stop offset="0" stop-color="#c38ae9"/><stop offset="1" stop-color="#7363ff"/></linearGradient><path class="st1" d="M88.8 35.2c-13.8-.1-27.6-.1-41.3 0-6.8.1-12.3 5.8-13.1 12.4-1.4 7.4 2 14.6 6.7 20 2.9-3.1 5.8-6.2 8.9-9.2-1.6-2.5-4.2-5.5-2.5-8.6 1.7-3.1 5.6-4 8.9-4.1 8-.1 16 0 24 0 3.3 0 7.4.5 9.5 3.5 1.7 2.7 0 5.9-1.8 8-3.5 4.2-7.3 8.1-11 12.1-2.3 2.3-4.5 5.1-7.7 6.3-3.2.9-5.5-2.2-7.7-3.9-2.8 2.9-5.8 5.6-8.4 8.7 3.8 3.4 7.8 7.4 13.1 7.9 6.1.9 11.6-2.8 15.8-6.8C89 75 96 68.3 100.7 60c5.2-9.3-.4-24.1-11.9-24.8z"/><linearGradient id="SVGID_3_" gradientUnits="userSpaceOnUse" x1="10.999" y1="29.637" x2="110.51" y2="129.149"><stop offset="0" stop-color="#c38ae9"/><stop offset="1" stop-color="#7363ff"/></linearGradient><path class="st2" d="M86.7 81.4c1.7 2.5 4.3 5.9 2.2 9-2.1 3-6.2 3.8-9.6 3.8-8.3-.1-16.6.1-24.9-.1-3.4-.1-7.8-1.6-8.3-5.6.1-4.5 3.9-7.4 6.6-10.5 4.3-4.4 8.1-9.3 13-13 3.3-2.6 6.9.6 9.2 3 3.1-2.7 6-5.5 8.5-8.8-3.9-3.3-7.8-7.3-13.2-7.8-6-.9-11.3 2.8-15.5 6.6-6.5 6.2-13.1 12.5-17.9 20.2-4.8 7.2-3.2 17.9 3.5 23.4 2.8 2.3 6.5 3.1 10 3 12.7-.1 25.3.1 38 0 5.7.2 11.2-3.6 13.1-9 3.2-8.2-.1-17.4-5.9-23.5-2.8 3.2-5.8 6.3-8.8 9.3z"/></svg>